<svg xmlns="http://www.w3.org/2000/svg" viewBox="0 0 64 64"><defs><style>.cls-1{fill:#08181e;}.cls-2{fill:#0edd75;}.cls-3{fill:#e8dd77;}.cls-4{fill:#e63870;}.cls-5{fill:#1f75aa;}</style></defs><title>rrg-icon</title><g id="Layer_2" data-name="Layer 2"><g id="Layer_2-2" data-name="Layer 2"><circle class="cls-1" cx="32" cy="32" r="32"/><path class="cls-2" d="M21.4622,20.0824a1.2159,1.2159,0,0,0-1.2145,1.2146v26.54a1.2144,1.2144,0,1,0,2.4288,0V21.297A1.2158,1.2158,0,0,0,21.4622,20.0824Z"/><path class="cls-3" d="M42.6046,47.3244,37.9063,37.2463a1.162,1.162,0,0,0-.6843-.6347,1.1988,1.1988,0,0,0-.9323.0267,1.16,1.16,0,0,0-.6347.684,1.2077,1.2077,0,0,0,.0274.9358L40.381,48.3359a1.1582,1.1582,0,0,0,.6837.6337,1.2565,1.2565,0,0,0,.44.0819,1.1945,1.1945,0,0,0,.4927-.108,1.1549,1.1549,0,0,0,.6354-.684A1.2049,1.2049,0,0,0,42.6046,47.3244Z"/><path class="cls-4" d="M36.05,20.0824H26.5633V17.41a1.2143,1.2143,0,1,0-2.4285,0V21.056a1.456,1.456,0,0,0,1.4545,1.4545H36.0886a3.2663,3.2663,0,0,1,3.3087,2.958,3.1272,3.1272,0,0,1-3.1219,3.2945l-7.0395,0a1.2144,1.2144,0,1,0,0,2.4288l7.0395,0a5.5546,5.5546,0,0,0,5.5521-5.725A5.7143,5.7143,0,0,0,36.05,20.0824Z"/><path class="cls-5" d="M40.68,33.9793a9.462,9.462,0,0,0,5.0253-8.8167,9.5915,9.5915,0,0,0-9.7365-8.9677H29.2359a1.2144,1.2144,0,1,0,0,2.4288h7.0395a7.0392,7.0392,0,0,1,5.1174,2.2181,6.9586,6.9586,0,0,1,1.88,5.2618,7.1561,7.1561,0,0,1-7.2437,6.5458h-9.466V25.1828a1.2143,1.2143,0,0,0-2.4285,0V44.8387a1.2143,1.2143,0,1,0,2.4285,0v-9.76h9.7121a9.4221,9.4221,0,0,0,2.12-.25L43.33,45.3387a1.1565,1.1565,0,0,0,.684.6343,1.2643,1.2643,0,0,0,.44.082,1.2,1.2,0,0,0,.4927-.108,1.1563,1.1563,0,0,0,.6347-.684,1.2014,1.2014,0,0,0-.0274-.9358Z"/></g></g></svg>